<svg width="2098" height="1388" viewBox="0 0 2098 1388" fill="none" xmlns="http://www.w3.org/2000/svg">
<g filter="url(#filter0_d_247_16)">
<mask id="path-1-outside-1_247_16" maskUnits="userSpaceOnUse" x="100" y="467" width="1427" height="567" fill="black">
<rect fill="white" x="100" y="467" width="1427" height="567"/>
<path d="M523.84 1013.86C482.499 1013.86 451.9 1002.14 432.043 978.703C414.79 958.521 406.164 932.642 406.164 901.066C406.164 886.092 407.954 868.677 411.535 848.82C415.441 828.964 421.138 803.41 428.625 772.16C436.112 740.259 441.646 714.868 445.227 695.988C449.133 676.783 451.086 660.181 451.086 646.184C451.086 612.004 439.042 594.914 414.953 594.914C398.026 594.914 382.401 603.866 368.078 621.77C356.034 637.069 345.617 658.879 336.828 687.199L268.957 1008H124.914L230.871 508H374.914L364.172 559.758C383.703 537.948 404.699 522.648 427.16 513.859C443.762 507.349 461.665 504.094 480.871 504.094C514.725 504.094 541.418 512.883 560.949 530.461C581.783 549.667 592.199 578.475 592.199 616.887C592.199 639.999 587.967 670.109 579.504 707.219C577.225 717.961 573.482 734.074 568.273 755.559C558.833 791.691 551.997 820.5 547.766 841.984C545.161 855.656 543.859 866.724 543.859 875.188C543.859 888.534 546.789 898.951 552.648 906.438C558.833 913.599 569.25 917.18 583.898 917.18C603.755 917.18 620.52 909.042 634.191 892.766C644.608 880.396 655.839 859.074 667.883 828.801H709.875C685.135 902.043 653.885 953.312 616.125 982.609C589.432 1003.44 558.671 1013.86 523.84 1013.86ZM813.879 1011.91C764.4 1011.91 726.151 999.862 699.133 975.773C668.859 949.081 653.723 908.553 653.723 854.191C653.723 833.684 655.839 811.06 660.07 786.32C664.302 761.255 670.812 736.027 679.602 710.637C699.784 650.09 728.592 601.75 766.027 565.617C811.275 521.346 865.148 499.211 927.648 499.211C1013.26 499.211 1056.07 552.434 1056.07 658.879V659.855C1058.02 660.507 1059.65 660.832 1060.95 660.832H1066.81C1088.94 660.832 1115.15 654.647 1145.42 642.277C1172.11 631.21 1197.34 617.375 1221.11 600.773L1229.89 628.117C1210.36 648.625 1185.14 666.04 1154.21 680.363C1123.61 694.686 1089.76 704.94 1052.65 711.125C1048.74 756.372 1039.95 797.714 1026.28 835.148C1012.61 872.258 995.031 904.159 973.547 930.852C952.388 956.893 928.137 976.913 900.793 990.91C873.449 1004.91 844.478 1011.91 813.879 1011.91ZM853.918 922.062C865.637 922.062 877.518 916.854 889.562 906.438C901.932 895.695 913.488 880.884 924.23 862.004C934.973 843.124 944.25 820.988 952.062 795.598C959.875 770.207 965.734 743.026 969.641 714.055C959.875 711.451 952.876 706.568 948.645 699.406C944.738 692.245 942.785 683.13 942.785 672.062C942.785 658.391 945.552 646.997 951.086 637.883C956.62 628.768 964.27 622.095 974.035 617.863C972.733 596.704 969.315 581.568 963.781 572.453C960.852 567.896 957.108 564.641 952.551 562.688C948.319 560.734 942.785 559.758 935.949 559.758C913.488 559.758 891.516 576.685 870.031 610.539C850.174 641.138 833.898 678.898 821.203 723.82C808.833 767.766 802.648 806.828 802.648 841.008C802.648 857.609 803.462 871.118 805.09 881.535C807.043 891.952 810.135 900.09 814.367 905.949C818.273 911.809 823.319 916.04 829.504 918.645C835.689 920.923 843.827 922.062 853.918 922.062ZM1221.11 1013.86C1182.37 1013.86 1152.26 1004.09 1130.77 984.562C1109.29 964.706 1098.55 935.246 1098.55 896.184C1098.55 879.908 1100.17 863.794 1103.43 847.844L1175.21 508H1319.25L1247.47 847.844C1243.89 863.794 1242.1 875.839 1242.1 883.977C1242.1 894.393 1244.87 902.531 1250.4 908.391C1255.94 914.25 1264.56 917.18 1276.28 917.18C1291.91 917.18 1307.21 911.646 1322.18 900.578C1337.15 889.51 1351.31 874.211 1364.66 854.68C1377.03 836.776 1388.42 815.943 1398.84 792.18C1409.58 768.417 1418.7 743.84 1426.18 718.449C1433.35 693.71 1438.88 669.621 1442.79 646.184C1447.02 622.421 1449.13 601.424 1449.13 583.195C1447.83 586.125 1443.11 588.566 1434.97 590.52C1429.76 592.147 1423.9 592.961 1417.39 592.961C1406 592.961 1397.05 587.427 1390.54 576.359C1384.35 566.919 1381.26 555.526 1381.26 542.18C1381.26 525.904 1386.47 512.883 1396.89 503.117C1407.3 493.026 1422.77 487.98 1443.27 487.98C1465.41 487.98 1481.85 496.932 1492.59 514.836C1501.7 529.81 1506.26 549.829 1506.26 574.895C1506.26 602.564 1503.82 632.512 1498.94 664.738C1494.38 696.965 1487.38 728.703 1477.94 759.953C1455.15 834.172 1424.39 892.603 1385.66 935.246C1338.78 987.655 1283.93 1013.86 1221.11 1013.86Z"/>
</mask>
<path d="M523.84 1013.86C482.499 1013.86 451.9 1002.14 432.043 978.703C414.79 958.521 406.164 932.642 406.164 901.066C406.164 886.092 407.954 868.677 411.535 848.82C415.441 828.964 421.138 803.41 428.625 772.16C436.112 740.259 441.646 714.868 445.227 695.988C449.133 676.783 451.086 660.181 451.086 646.184C451.086 612.004 439.042 594.914 414.953 594.914C398.026 594.914 382.401 603.866 368.078 621.77C356.034 637.069 345.617 658.879 336.828 687.199L268.957 1008H124.914L230.871 508H374.914L364.172 559.758C383.703 537.948 404.699 522.648 427.16 513.859C443.762 507.349 461.665 504.094 480.871 504.094C514.725 504.094 541.418 512.883 560.949 530.461C581.783 549.667 592.199 578.475 592.199 616.887C592.199 639.999 587.967 670.109 579.504 707.219C577.225 717.961 573.482 734.074 568.273 755.559C558.833 791.691 551.997 820.5 547.766 841.984C545.161 855.656 543.859 866.724 543.859 875.188C543.859 888.534 546.789 898.951 552.648 906.438C558.833 913.599 569.25 917.18 583.898 917.18C603.755 917.18 620.52 909.042 634.191 892.766C644.608 880.396 655.839 859.074 667.883 828.801H709.875C685.135 902.043 653.885 953.312 616.125 982.609C589.432 1003.44 558.671 1013.86 523.84 1013.86ZM813.879 1011.91C764.4 1011.91 726.151 999.862 699.133 975.773C668.859 949.081 653.723 908.553 653.723 854.191C653.723 833.684 655.839 811.06 660.07 786.32C664.302 761.255 670.812 736.027 679.602 710.637C699.784 650.09 728.592 601.75 766.027 565.617C811.275 521.346 865.148 499.211 927.648 499.211C1013.26 499.211 1056.07 552.434 1056.07 658.879V659.855C1058.02 660.507 1059.65 660.832 1060.95 660.832H1066.81C1088.94 660.832 1115.15 654.647 1145.42 642.277C1172.11 631.21 1197.34 617.375 1221.11 600.773L1229.89 628.117C1210.36 648.625 1185.14 666.04 1154.21 680.363C1123.61 694.686 1089.76 704.94 1052.65 711.125C1048.74 756.372 1039.95 797.714 1026.28 835.148C1012.61 872.258 995.031 904.159 973.547 930.852C952.388 956.893 928.137 976.913 900.793 990.91C873.449 1004.91 844.478 1011.91 813.879 1011.91ZM853.918 922.062C865.637 922.062 877.518 916.854 889.562 906.438C901.932 895.695 913.488 880.884 924.23 862.004C934.973 843.124 944.25 820.988 952.062 795.598C959.875 770.207 965.734 743.026 969.641 714.055C959.875 711.451 952.876 706.568 948.645 699.406C944.738 692.245 942.785 683.13 942.785 672.062C942.785 658.391 945.552 646.997 951.086 637.883C956.62 628.768 964.27 622.095 974.035 617.863C972.733 596.704 969.315 581.568 963.781 572.453C960.852 567.896 957.108 564.641 952.551 562.688C948.319 560.734 942.785 559.758 935.949 559.758C913.488 559.758 891.516 576.685 870.031 610.539C850.174 641.138 833.898 678.898 821.203 723.82C808.833 767.766 802.648 806.828 802.648 841.008C802.648 857.609 803.462 871.118 805.09 881.535C807.043 891.952 810.135 900.09 814.367 905.949C818.273 911.809 823.319 916.04 829.504 918.645C835.689 920.923 843.827 922.062 853.918 922.062ZM1221.11 1013.86C1182.37 1013.86 1152.26 1004.09 1130.77 984.562C1109.29 964.706 1098.55 935.246 1098.55 896.184C1098.55 879.908 1100.17 863.794 1103.43 847.844L1175.21 508H1319.25L1247.47 847.844C1243.89 863.794 1242.1 875.839 1242.1 883.977C1242.1 894.393 1244.87 902.531 1250.4 908.391C1255.94 914.25 1264.56 917.18 1276.28 917.18C1291.91 917.18 1307.21 911.646 1322.18 900.578C1337.15 889.51 1351.31 874.211 1364.66 854.68C1377.03 836.776 1388.42 815.943 1398.84 792.18C1409.58 768.417 1418.7 743.84 1426.18 718.449C1433.35 693.71 1438.88 669.621 1442.79 646.184C1447.02 622.421 1449.13 601.424 1449.13 583.195C1447.83 586.125 1443.11 588.566 1434.97 590.52C1429.76 592.147 1423.9 592.961 1417.39 592.961C1406 592.961 1397.05 587.427 1390.54 576.359C1384.35 566.919 1381.26 555.526 1381.26 542.18C1381.26 525.904 1386.47 512.883 1396.89 503.117C1407.3 493.026 1422.77 487.98 1443.27 487.98C1465.41 487.98 1481.85 496.932 1492.59 514.836C1501.7 529.81 1506.26 549.829 1506.26 574.895C1506.26 602.564 1503.82 632.512 1498.94 664.738C1494.38 696.965 1487.38 728.703 1477.94 759.953C1455.15 834.172 1424.39 892.603 1385.66 935.246C1338.78 987.655 1283.93 1013.86 1221.11 1013.86Z" fill="#81B4F5"/>
<path d="M432.043 978.703L447.303 965.775L447.274 965.741L447.245 965.708L432.043 978.703ZM411.535 848.82L391.911 844.96L391.881 845.115L391.853 845.271L411.535 848.82ZM428.625 772.16L448.075 776.82L448.085 776.775L448.096 776.73L428.625 772.16ZM445.227 695.988L425.628 692.002L425.601 692.132L425.577 692.262L445.227 695.988ZM368.078 621.77L352.461 609.276L352.412 609.337L352.363 609.398L368.078 621.77ZM336.828 687.199L317.727 681.271L317.453 682.155L317.261 683.06L336.828 687.199ZM268.957 1008V1028H285.168L288.524 1012.14L268.957 1008ZM124.914 1008L105.349 1003.85L100.232 1028H124.914V1008ZM230.871 508V488H214.665L211.306 503.854L230.871 508ZM374.914 508L394.497 512.064L399.491 488H374.914V508ZM364.172 559.758L344.589 555.693L329.484 628.472L379.071 573.1L364.172 559.758ZM427.16 513.859L434.448 532.484L434.455 532.482L434.462 532.479L427.16 513.859ZM560.949 530.461L574.505 515.756L574.417 515.675L574.329 515.595L560.949 530.461ZM579.504 707.219L560.005 702.772L559.971 702.92L559.939 703.069L579.504 707.219ZM568.273 755.559L587.624 760.614L587.669 760.443L587.71 760.271L568.273 755.559ZM547.766 841.984L528.143 838.119L528.131 838.181L528.119 838.242L547.766 841.984ZM552.648 906.438L536.898 918.764L537.196 919.144L537.512 919.51L552.648 906.438ZM634.191 892.766L618.893 879.883L618.885 879.892L618.877 879.902L634.191 892.766ZM667.883 828.801V808.801H654.315L649.3 821.407L667.883 828.801ZM709.875 828.801L728.823 835.201L737.741 808.801H709.875V828.801ZM616.125 982.609L603.865 966.808L603.842 966.825L603.82 966.843L616.125 982.609ZM523.84 1013.86V993.859C486.227 993.859 462.16 983.311 447.303 965.775L432.043 978.703L416.783 991.631C441.64 1020.97 478.771 1033.86 523.84 1033.86V1013.86ZM432.043 978.703L447.245 965.708C433.653 949.807 426.164 928.823 426.164 901.066H406.164H386.164C386.164 936.461 395.928 967.235 416.841 991.699L432.043 978.703ZM406.164 901.066H426.164C426.164 887.611 427.781 871.43 431.218 852.37L411.535 848.82L391.853 845.271C388.128 865.924 386.164 884.574 386.164 901.066H406.164ZM411.535 848.82L431.159 852.681C434.991 833.199 440.619 807.939 448.075 776.82L428.625 772.16L409.175 767.5C401.657 798.881 395.891 824.728 391.911 844.96L411.535 848.82ZM428.625 772.16L448.096 776.73C455.61 744.714 461.218 719.005 464.876 699.715L445.227 695.988L425.577 692.262C422.074 710.732 416.614 735.804 409.154 767.59L428.625 772.16ZM445.227 695.988L464.825 699.974C468.901 679.934 471.086 661.932 471.086 646.184H451.086H431.086C431.086 658.43 429.364 673.631 425.628 692.002L445.227 695.988ZM451.086 646.184H471.086C471.086 627.355 467.879 609.659 458.401 596.21C448.02 581.481 432.362 574.914 414.953 574.914V594.914V614.914C421.633 614.914 424.041 616.892 425.705 619.253C428.271 622.894 431.086 630.833 431.086 646.184H451.086ZM414.953 594.914V574.914C389.975 574.914 369.145 588.421 352.461 609.276L368.078 621.77L383.695 634.263C395.657 619.311 406.077 614.914 414.953 614.914V594.914ZM368.078 621.77L352.363 609.398C338.229 627.352 326.901 651.71 317.727 681.271L336.828 687.199L355.929 693.127C364.333 666.048 373.838 646.786 383.793 634.141L368.078 621.77ZM336.828 687.199L317.261 683.06L249.39 1003.86L268.957 1008L288.524 1012.14L356.395 691.339L336.828 687.199ZM268.957 1008V988H124.914V1008V1028H268.957V1008ZM124.914 1008L144.48 1012.15L250.437 512.146L230.871 508L211.306 503.854L105.349 1003.85L124.914 1008ZM230.871 508V528H374.914V508V488H230.871V508ZM374.914 508L355.331 503.936L344.589 555.693L364.172 559.758L383.755 563.822L394.497 512.064L374.914 508ZM364.172 559.758L379.071 573.1C396.954 553.13 415.461 539.914 434.448 532.484L427.16 513.859L419.872 495.235C393.937 505.383 370.452 522.765 349.273 546.415L364.172 559.758ZM427.16 513.859L434.462 532.479C448.563 526.949 463.97 524.094 480.871 524.094V504.094V484.094C459.36 484.094 438.96 487.749 419.858 495.24L427.16 513.859ZM480.871 504.094V524.094C511.251 524.094 532.672 531.919 547.57 545.327L560.949 530.461L574.329 515.595C550.164 493.847 518.2 484.094 480.871 484.094V504.094ZM560.949 530.461L547.393 545.166C562.813 559.381 572.199 581.995 572.199 616.887H592.199H612.199C612.199 574.956 600.753 539.953 574.505 515.756L560.949 530.461ZM592.199 616.887H572.199C572.199 637.854 568.32 666.314 560.005 702.772L579.504 707.219L599.003 711.666C607.615 673.905 612.199 642.143 612.199 616.887H592.199ZM579.504 707.219L559.939 703.069C557.723 713.518 554.035 729.402 548.836 750.847L568.273 755.559L587.71 760.271C592.928 738.746 596.728 722.404 599.069 711.369L579.504 707.219ZM568.273 755.559L548.923 750.503C539.441 786.797 532.489 816.054 528.143 838.119L547.766 841.984L567.389 845.849C571.506 824.946 578.226 796.585 587.624 760.614L568.273 755.559ZM547.766 841.984L528.119 838.242C525.409 852.469 523.859 864.927 523.859 875.188H543.859H563.859C563.859 868.521 564.914 858.844 567.412 845.727L547.766 841.984ZM543.859 875.188H523.859C523.859 891.234 527.364 906.581 536.898 918.764L552.648 906.438L568.399 894.111C566.214 891.32 563.859 885.834 563.859 875.188H543.859ZM552.648 906.438L537.512 919.51C549.172 933.011 566.619 937.18 583.898 937.18V917.18V897.18C571.881 897.18 568.494 894.186 567.785 893.365L552.648 906.438ZM583.898 917.18V937.18C610.122 937.18 632.339 926.066 649.505 905.629L634.191 892.766L618.877 879.902C608.7 892.017 597.388 897.18 583.898 897.18V917.18ZM634.191 892.766L649.49 905.648C662.077 890.701 674.264 866.865 686.466 836.194L667.883 828.801L649.3 821.407C637.413 851.283 627.139 870.091 618.893 879.883L634.191 892.766ZM667.883 828.801V848.801H709.875V828.801V808.801H667.883V828.801ZM709.875 828.801L690.927 822.401C666.738 894.011 637.145 940.987 603.865 966.808L616.125 982.609L628.385 998.411C670.626 965.638 703.532 910.075 728.823 835.201L709.875 828.801ZM616.125 982.609L603.82 966.843C580.749 984.849 554.35 993.859 523.84 993.859V1013.86V1033.86C562.992 1033.86 598.115 1022.04 628.43 998.376L616.125 982.609ZM699.133 975.773L712.442 960.845L712.401 960.808L712.36 960.772L699.133 975.773ZM660.07 786.32L679.784 789.692L679.788 789.671L679.791 789.65L660.07 786.32ZM679.602 710.637L698.501 717.179L698.539 717.07L698.575 716.961L679.602 710.637ZM766.027 565.617L779.917 580.007L779.966 579.96L780.014 579.913L766.027 565.617ZM1056.07 659.855H1036.07V674.271L1049.74 678.829L1056.07 659.855ZM1145.42 642.277L1152.99 660.791L1153.03 660.772L1153.08 660.752L1145.42 642.277ZM1221.11 600.773L1240.15 594.653L1231.86 568.865L1209.65 584.378L1221.11 600.773ZM1229.89 628.117L1244.38 641.91L1252.57 633.307L1248.94 621.997L1229.89 628.117ZM1154.21 680.363L1145.81 662.215L1145.77 662.232L1145.73 662.249L1154.21 680.363ZM1052.65 711.125L1049.36 691.397L1034.06 693.948L1032.72 709.405L1052.65 711.125ZM1026.28 835.148L1045.05 842.063L1045.06 842.036L1045.07 842.01L1026.28 835.148ZM973.547 930.852L989.069 943.463L989.098 943.428L989.127 943.392L973.547 930.852ZM889.562 906.438L902.646 921.565L902.661 921.551L902.676 921.538L889.562 906.438ZM969.641 714.055L989.461 716.727L991.815 699.269L974.794 694.73L969.641 714.055ZM948.645 699.406L931.087 708.983L931.251 709.285L931.426 709.581L948.645 699.406ZM974.035 617.863L981.987 636.214L994.859 630.637L993.997 616.635L974.035 617.863ZM963.781 572.453L980.877 562.074L980.744 561.854L980.605 561.638L963.781 572.453ZM952.551 562.688L944.17 580.847L944.419 580.962L944.672 581.07L952.551 562.688ZM870.031 610.539L886.808 621.426L886.863 621.341L886.918 621.256L870.031 610.539ZM821.203 723.82L801.957 718.381L801.954 718.391L801.951 718.401L821.203 723.82ZM805.09 881.535L785.33 884.623L785.376 884.923L785.432 885.221L805.09 881.535ZM814.367 905.949L831.008 894.855L830.8 894.543L830.581 894.239L814.367 905.949ZM829.504 918.645L821.743 937.077L822.162 937.254L822.59 937.411L829.504 918.645ZM813.879 1011.91V991.906C767.495 991.906 734.638 980.634 712.442 960.845L699.133 975.773L685.823 990.702C717.664 1019.09 761.304 1031.91 813.879 1031.91V1011.91ZM699.133 975.773L712.36 960.772C687.746 939.069 673.723 904.905 673.723 854.191H653.723H633.723C633.723 912.202 649.973 959.092 685.906 990.775L699.133 975.773ZM653.723 854.191H673.723C673.723 835.031 675.702 813.555 679.784 789.692L660.07 786.32L640.357 782.948C635.975 808.565 633.723 832.336 633.723 854.191H653.723ZM660.07 786.32L679.791 789.65C683.829 765.736 690.054 741.582 698.501 717.179L679.602 710.637L660.702 704.094C651.571 730.472 644.776 756.774 640.349 782.991L660.07 786.32ZM679.602 710.637L698.575 716.961C717.966 658.79 745.271 613.449 779.917 580.007L766.027 565.617L752.138 551.227C711.914 590.051 681.602 641.39 660.628 704.312L679.602 710.637ZM766.027 565.617L780.014 579.913C821.578 539.246 870.452 519.211 927.648 519.211V499.211V479.211C859.845 479.211 800.971 503.447 752.04 551.322L766.027 565.617ZM927.648 499.211V519.211C966.077 519.211 991.711 530.941 1008.38 551.662C1025.71 573.216 1036.07 607.812 1036.07 658.879H1056.07H1076.07C1076.07 603.501 1065.02 558.262 1039.55 526.593C1013.41 494.092 974.832 479.211 927.648 479.211V499.211ZM1056.07 658.879H1036.07V659.855H1056.07H1076.07V658.879H1056.07ZM1056.07 659.855L1049.74 678.829C1052.69 679.813 1056.62 680.832 1060.95 680.832V660.832V640.832C1061.92 640.832 1062.53 640.947 1062.67 640.976C1062.84 641.009 1062.76 641.005 1062.39 640.882L1056.07 659.855ZM1060.95 660.832V680.832H1066.81V660.832V640.832H1060.95V660.832ZM1066.81 660.832V680.832C1092.47 680.832 1121.36 673.716 1152.99 660.791L1145.42 642.277L1137.86 623.763C1108.94 635.578 1085.42 640.832 1066.81 640.832V660.832ZM1145.42 642.277L1153.08 660.752C1181.12 649.129 1207.61 634.596 1232.56 617.169L1221.11 600.773L1209.65 584.378C1187.07 600.154 1163.11 613.291 1137.76 623.802L1145.42 642.277ZM1221.11 600.773L1202.06 606.894L1210.85 634.237L1229.89 628.117L1248.94 621.997L1240.15 594.653L1221.11 600.773ZM1229.89 628.117L1215.41 614.324C1197.93 632.682 1174.9 648.74 1145.81 662.215L1154.21 680.363L1162.62 698.511C1195.37 683.341 1222.8 664.568 1244.38 641.91L1229.89 628.117ZM1154.21 680.363L1145.73 662.249C1116.96 675.719 1084.88 685.478 1049.36 691.397L1052.65 711.125L1055.94 730.853C1094.64 724.402 1130.27 713.654 1162.69 698.477L1154.21 680.363ZM1052.65 711.125L1032.72 709.405C1028.95 753.136 1020.48 792.72 1007.49 828.287L1026.28 835.148L1045.07 842.01C1059.42 802.707 1068.54 759.609 1072.57 712.845L1052.65 711.125ZM1026.28 835.148L1007.51 828.234C994.479 863.616 977.899 893.547 957.967 918.311L973.547 930.852L989.127 943.392C1012.16 914.771 1030.74 880.9 1045.05 842.063L1026.28 835.148ZM973.547 930.852L958.025 918.24C938.455 942.326 916.329 960.489 891.68 973.107L900.793 990.91L909.906 1008.71C939.944 993.336 966.321 971.461 989.069 943.463L973.547 930.852ZM900.793 990.91L891.68 973.107C867.145 985.666 841.296 991.906 813.879 991.906V1011.91V1031.91C847.66 1031.91 879.753 1024.15 909.906 1008.71L900.793 990.91ZM853.918 922.062V942.062C871.929 942.062 888.277 933.991 902.646 921.565L889.562 906.438L876.479 891.31C866.759 899.717 859.345 902.062 853.918 902.062V922.062ZM889.562 906.438L902.676 921.538C917.208 908.918 930.096 892.138 941.614 871.894L924.23 862.004L906.847 852.113C896.881 869.63 886.656 882.472 876.449 891.337L889.562 906.438ZM924.23 862.004L941.614 871.894C953.217 851.501 963.027 827.969 971.178 801.479L952.062 795.598L932.947 789.716C925.473 814.008 916.729 834.746 906.847 852.113L924.23 862.004ZM952.062 795.598L971.178 801.479C979.344 774.942 985.423 746.679 989.461 716.727L969.641 714.055L949.82 711.382C946.046 739.373 940.406 765.472 932.947 789.716L952.062 795.598ZM969.641 714.055L974.794 694.73C968.936 693.168 966.875 690.943 965.863 689.232L948.645 699.406L931.426 709.581C938.878 722.192 950.814 729.733 964.487 733.379L969.641 714.055ZM948.645 699.406L966.202 689.829C964.368 686.467 962.785 680.926 962.785 672.062H942.785H922.785C922.785 685.335 925.108 698.023 931.087 708.983L948.645 699.406ZM942.785 672.062H962.785C962.785 661.034 965.014 653.48 968.182 648.262L951.086 637.883L933.99 627.503C926.09 640.515 922.785 655.747 922.785 672.062H942.785ZM951.086 637.883L968.182 648.262C971.571 642.68 976.029 638.796 981.987 636.214L974.035 617.863L966.083 599.512C952.51 605.394 941.669 614.856 933.99 627.503L951.086 637.883ZM974.035 617.863L993.997 616.635C992.656 594.838 989.063 575.556 980.877 562.074L963.781 572.453L946.685 582.833C949.567 587.579 952.81 598.571 954.073 619.092L974.035 617.863ZM963.781 572.453L980.605 561.638C975.725 554.047 968.997 547.977 960.429 544.305L952.551 562.688L944.672 581.07C945.219 581.305 945.978 581.745 946.958 583.268L963.781 572.453ZM952.551 562.688L960.932 544.528C953.141 540.932 944.438 539.758 935.949 539.758V559.758V579.758C941.132 579.758 943.497 580.536 944.17 580.847L952.551 562.688ZM935.949 559.758V539.758C902.634 539.758 875.451 564.674 853.145 599.823L870.031 610.539L886.918 621.256C907.581 588.696 924.343 579.758 935.949 579.758V559.758ZM870.031 610.539L853.254 599.652C832.05 632.327 815.053 672.041 801.957 718.381L821.203 723.82L840.449 729.259C852.744 685.756 868.299 649.949 886.808 621.426L870.031 610.539ZM821.203 723.82L801.951 718.401C789.24 763.559 782.648 804.5 782.648 841.008H802.648H822.648C822.648 809.156 828.427 771.972 840.455 729.239L821.203 723.82ZM802.648 841.008H782.648C782.648 858.128 783.479 872.778 785.33 884.623L805.09 881.535L824.85 878.448C823.446 869.459 822.648 857.091 822.648 841.008H802.648ZM805.09 881.535L785.432 885.221C787.696 897.291 791.585 908.564 798.154 917.659L814.367 905.949L830.581 894.239C828.686 891.616 826.39 886.613 824.747 877.849L805.09 881.535ZM814.367 905.949L797.726 917.043C803.695 925.997 811.759 932.873 821.743 937.077L829.504 918.645L837.265 900.212C834.88 899.207 832.852 897.62 831.008 894.855L814.367 905.949ZM829.504 918.645L822.59 937.411C831.839 940.819 842.586 942.062 853.918 942.062V922.062V902.062C845.067 902.062 839.538 901.027 836.418 899.878L829.504 918.645ZM1130.77 984.562L1117.2 999.25L1117.26 999.306L1117.32 999.361L1130.77 984.562ZM1103.43 847.844L1083.86 843.711L1083.85 843.778L1083.83 843.845L1103.43 847.844ZM1175.21 508V488H1158.99L1155.64 503.867L1175.21 508ZM1319.25 508L1338.82 512.133L1343.92 488H1319.25V508ZM1247.47 847.844L1266.99 852.224L1267.01 852.101L1267.04 851.977L1247.47 847.844ZM1364.66 854.68L1348.21 843.311L1348.18 843.353L1348.15 843.396L1364.66 854.68ZM1398.84 792.18L1380.62 783.941L1380.57 784.045L1380.52 784.15L1398.84 792.18ZM1426.18 718.449L1445.37 724.106L1445.38 724.058L1445.39 724.01L1426.18 718.449ZM1442.79 646.184L1423.09 642.677L1423.08 642.786L1423.06 642.896L1442.79 646.184ZM1449.13 583.195H1469.13L1430.86 575.073L1449.13 583.195ZM1434.97 590.52L1430.31 571.072L1429.65 571.229L1429.01 571.43L1434.97 590.52ZM1390.54 576.359L1407.78 566.219L1407.53 565.803L1407.27 565.399L1390.54 576.359ZM1396.89 503.117L1410.57 517.708L1410.69 517.596L1410.8 517.482L1396.89 503.117ZM1492.59 514.836L1475.44 525.126L1475.47 525.18L1475.51 525.235L1492.59 514.836ZM1498.94 664.738L1479.16 661.742L1479.15 661.84L1479.13 661.938L1498.94 664.738ZM1477.94 759.953L1497.06 765.823L1497.07 765.78L1497.09 765.737L1477.94 759.953ZM1385.66 935.246L1370.85 921.798L1370.8 921.855L1370.75 921.913L1385.66 935.246ZM1221.11 1013.86V993.859C1185.65 993.859 1160.94 984.961 1144.23 969.764L1130.77 984.562L1117.32 999.361C1143.57 1023.23 1179.09 1033.86 1221.11 1033.86V1013.86ZM1130.77 984.562L1144.35 969.875C1128.2 954.953 1118.55 931.624 1118.55 896.184H1098.55H1078.55C1078.55 938.869 1090.37 974.458 1117.2 999.25L1130.77 984.562ZM1098.55 896.184H1118.55C1118.55 881.251 1120.04 866.478 1123.03 851.843L1103.43 847.844L1083.83 843.845C1080.31 861.111 1078.55 878.564 1078.55 896.184H1098.55ZM1103.43 847.844L1123 851.977L1194.78 512.133L1175.21 508L1155.64 503.867L1083.86 843.711L1103.43 847.844ZM1175.21 508V528H1319.25V508V488H1175.21V508ZM1319.25 508L1299.68 503.867L1227.9 843.711L1247.47 847.844L1267.04 851.977L1338.82 512.133L1319.25 508ZM1247.47 847.844L1227.96 843.463C1224.31 859.716 1222.1 873.535 1222.1 883.977H1242.1H1262.1C1262.1 878.142 1263.47 867.872 1266.99 852.224L1247.47 847.844ZM1242.1 883.977H1222.1C1222.1 897.953 1225.89 911.562 1235.86 922.123L1250.4 908.391L1264.94 894.658C1263.85 893.501 1262.1 890.833 1262.1 883.977H1242.1ZM1250.4 908.391L1235.86 922.123C1246.61 933.506 1261.58 937.18 1276.28 937.18V917.18V897.18C1267.54 897.18 1265.26 894.994 1264.94 894.658L1250.4 908.391ZM1276.28 917.18V937.18C1296.96 937.18 1316.33 929.771 1334.07 916.662L1322.18 900.578L1310.29 884.495C1298.08 893.52 1286.85 897.18 1276.28 897.18V917.18ZM1322.18 900.578L1334.07 916.662C1351.25 903.96 1366.89 886.866 1381.17 865.964L1364.66 854.68L1348.15 843.396C1335.74 861.556 1323.05 875.061 1310.29 884.495L1322.18 900.578ZM1364.66 854.68L1381.11 866.048C1394.33 846.916 1406.32 824.927 1417.16 800.209L1398.84 792.18L1380.52 784.15C1370.52 806.959 1359.73 826.636 1348.21 843.311L1364.66 854.68ZM1398.84 792.18L1417.06 800.418C1428.19 775.805 1437.62 750.365 1445.37 724.106L1426.18 718.449L1407 712.793C1399.77 737.315 1390.97 761.028 1380.62 783.941L1398.84 792.18ZM1426.18 718.449L1445.39 724.01C1452.75 698.585 1458.47 673.737 1462.51 649.472L1442.79 646.184L1423.06 642.896C1419.29 665.505 1413.94 688.834 1406.97 712.888L1426.18 718.449ZM1442.79 646.184L1462.48 649.69C1466.85 625.117 1469.13 602.907 1469.13 583.195H1449.13H1429.13C1429.13 599.942 1427.18 619.724 1423.09 642.677L1442.79 646.184ZM1449.13 583.195L1430.86 575.073C1431.94 572.632 1433.37 571.12 1434.2 570.375C1435.02 569.644 1435.56 569.391 1435.43 569.459C1435.33 569.512 1434.88 569.725 1433.97 570.038C1433.07 570.345 1431.86 570.698 1430.31 571.072L1434.97 590.52L1439.64 609.967C1444.49 608.803 1449.44 607.247 1453.8 604.988C1457.76 602.942 1464.04 598.895 1467.41 591.318L1449.13 583.195ZM1434.97 590.52L1429.01 571.43C1426.06 572.351 1422.26 572.961 1417.39 572.961V592.961V612.961C1425.55 612.961 1433.47 611.944 1440.94 609.609L1434.97 590.52ZM1417.39 592.961V572.961C1414.11 572.961 1411.24 572.109 1407.78 566.219L1390.54 576.359L1373.3 586.5C1382.86 602.745 1397.9 612.961 1417.39 612.961V592.961ZM1390.54 576.359L1407.27 565.399C1403.58 559.773 1401.26 552.356 1401.26 542.18H1381.26H1361.26C1361.26 558.697 1365.13 574.066 1373.81 587.32L1390.54 576.359ZM1381.26 542.18H1401.26C1401.26 530.582 1404.76 523.148 1410.57 517.708L1396.89 503.117L1383.21 488.526C1368.18 502.617 1361.26 521.225 1361.26 542.18H1381.26ZM1396.89 503.117L1410.8 517.482C1416.18 512.273 1425.8 507.98 1443.27 507.98V487.98V467.98C1419.74 467.98 1398.43 473.779 1382.97 488.752L1396.89 503.117ZM1443.27 487.98V507.98C1458.9 507.98 1468.57 513.674 1475.44 525.126L1492.59 514.836L1509.74 504.546C1495.13 480.19 1471.92 467.98 1443.27 467.98V487.98ZM1492.59 514.836L1475.51 525.235C1482.06 536.007 1486.26 552.004 1486.26 574.895H1506.26H1526.26C1526.26 547.655 1521.35 523.613 1509.67 504.437L1492.59 514.836ZM1506.26 574.895H1486.26C1486.26 601.403 1483.92 630.338 1479.16 661.742L1498.94 664.738L1518.71 667.734C1523.72 634.686 1526.26 603.725 1526.26 574.895H1506.26ZM1498.94 664.738L1479.13 661.938C1474.72 693.152 1467.94 723.893 1458.8 754.17L1477.94 759.953L1497.09 765.737C1506.82 733.513 1514.04 700.778 1518.74 667.539L1498.94 664.738ZM1477.94 759.953L1458.82 754.083C1436.61 826.417 1407.05 881.952 1370.85 921.798L1385.66 935.246L1400.46 948.694C1441.74 903.254 1473.7 841.927 1497.06 765.823L1477.94 759.953ZM1385.66 935.246L1370.75 921.913C1327.16 970.643 1277.53 993.859 1221.11 993.859V1013.86V1033.86C1290.34 1033.86 1350.4 1004.67 1400.56 948.579L1385.66 935.246Z" fill="#5287EA" mask="url(#path-1-outside-1_247_16)"/>
<mask id="path-3-outside-2_247_16" maskUnits="userSpaceOnUse" x="1462" y="458" width="536" height="662" fill="black">
<rect fill="white" x="1462" y="458" width="536" height="662"/>
<path d="M1632.8 1099.91C1619.67 1099.91 1608.19 1099.33 1598.34 1098.16C1588.5 1096.98 1579.24 1094.17 1570.57 1089.72C1547.84 1078.7 1536.47 1056.67 1536.47 1023.62C1536.47 1007.69 1538.93 988.586 1543.85 966.32C1549.01 944.055 1556.27 920.031 1565.65 894.25C1586.27 837.531 1611.82 783.039 1642.29 730.773C1618.38 732.18 1599.4 735.812 1585.34 741.672C1571.51 747.297 1562.37 756.086 1557.91 768.039C1560.02 768.039 1562.13 770.5 1564.24 775.422C1566.35 780.344 1567.41 785.383 1567.41 790.539C1567.41 798.977 1563.54 805.773 1555.8 810.93C1548.07 816.086 1538.46 818.664 1526.98 818.664C1514.09 818.664 1503.54 815.148 1495.34 808.117C1486.66 800.852 1482.33 790.422 1482.33 776.828C1482.33 764.875 1485.96 753.508 1493.23 742.727C1500.49 731.711 1510.8 722.219 1524.16 714.25C1537.76 706.047 1553.46 699.719 1571.27 695.266C1589.32 690.578 1608.66 688.234 1629.28 688.234C1639.36 688.234 1651.9 688.938 1666.9 690.344C1707.21 626.828 1747.52 577.023 1787.84 540.93C1834.71 498.977 1877.84 478 1917.21 478C1940.65 478 1959.63 481.398 1974.16 488.195L1861.31 1018H1757.6L1812.8 756.789C1795.45 748.82 1779.16 742.844 1763.93 738.859C1748.93 734.875 1733.11 732.18 1716.47 730.773C1689.28 789.602 1667.02 849.719 1649.67 911.125C1631.86 972.766 1622.95 1022.34 1622.95 1059.84C1622.95 1078.35 1626.23 1091.71 1632.8 1099.91ZM1861.31 528.977C1840.45 540.227 1818.54 561.438 1795.57 592.609C1773.07 623.547 1751.74 659.289 1731.59 699.836C1764.4 706.164 1793.7 714.484 1819.48 724.797L1861.31 528.977Z"/>
</mask>
<path d="M1632.8 1099.91C1619.67 1099.91 1608.19 1099.33 1598.34 1098.16C1588.5 1096.98 1579.24 1094.17 1570.57 1089.72C1547.84 1078.7 1536.47 1056.67 1536.47 1023.62C1536.47 1007.69 1538.93 988.586 1543.85 966.32C1549.01 944.055 1556.27 920.031 1565.65 894.25C1586.27 837.531 1611.82 783.039 1642.29 730.773C1618.38 732.18 1599.4 735.812 1585.34 741.672C1571.51 747.297 1562.37 756.086 1557.91 768.039C1560.02 768.039 1562.13 770.5 1564.24 775.422C1566.35 780.344 1567.41 785.383 1567.41 790.539C1567.41 798.977 1563.54 805.773 1555.8 810.93C1548.07 816.086 1538.46 818.664 1526.98 818.664C1514.09 818.664 1503.54 815.148 1495.34 808.117C1486.66 800.852 1482.33 790.422 1482.33 776.828C1482.33 764.875 1485.96 753.508 1493.23 742.727C1500.49 731.711 1510.8 722.219 1524.16 714.25C1537.76 706.047 1553.46 699.719 1571.27 695.266C1589.32 690.578 1608.66 688.234 1629.28 688.234C1639.36 688.234 1651.9 688.938 1666.9 690.344C1707.21 626.828 1747.52 577.023 1787.84 540.93C1834.71 498.977 1877.84 478 1917.21 478C1940.65 478 1959.63 481.398 1974.16 488.195L1861.31 1018H1757.6L1812.8 756.789C1795.45 748.82 1779.16 742.844 1763.93 738.859C1748.93 734.875 1733.11 732.18 1716.47 730.773C1689.28 789.602 1667.02 849.719 1649.67 911.125C1631.86 972.766 1622.95 1022.34 1622.95 1059.84C1622.95 1078.35 1626.23 1091.71 1632.8 1099.91ZM1861.31 528.977C1840.45 540.227 1818.54 561.438 1795.57 592.609C1773.07 623.547 1751.74 659.289 1731.59 699.836C1764.4 706.164 1793.7 714.484 1819.48 724.797L1861.31 528.977Z" fill="#81B4F5"/>
<path d="M1632.8 1099.91V1119.91H1674.41L1648.41 1087.42L1632.8 1099.91ZM1570.57 1089.72L1579.71 1071.93L1579.5 1071.82L1579.29 1071.72L1570.57 1089.72ZM1543.85 966.32L1524.37 961.808L1524.34 961.906L1524.32 962.003L1543.85 966.32ZM1642.29 730.773L1659.57 740.846L1678.36 708.617L1641.11 710.808L1642.29 730.773ZM1585.34 741.672L1592.87 760.198L1592.95 760.166L1593.03 760.133L1585.34 741.672ZM1557.91 768.039L1539.17 761.057L1529.12 788.039H1557.91V768.039ZM1495.34 808.117L1508.35 792.932L1508.27 792.859L1508.18 792.787L1495.34 808.117ZM1493.23 742.727L1509.81 753.904L1509.87 753.821L1509.92 753.738L1493.23 742.727ZM1524.16 714.25L1534.41 731.426L1534.45 731.4L1534.5 731.374L1524.16 714.25ZM1571.27 695.266L1576.12 714.668L1576.21 714.646L1576.3 714.623L1571.27 695.266ZM1666.9 690.344L1665.03 710.256L1677.22 711.399L1683.78 701.061L1666.9 690.344ZM1787.84 540.93L1774.5 526.027L1774.49 526.029L1787.84 540.93ZM1974.16 488.195L1993.73 492.362L1997.04 476.814L1982.64 470.079L1974.16 488.195ZM1861.31 1018V1038H1877.5L1880.87 1022.17L1861.31 1018ZM1757.6 1018L1738.03 1013.87L1732.93 1038H1757.6V1018ZM1812.8 756.789L1832.36 760.924L1835.67 745.288L1821.15 738.616L1812.8 756.789ZM1763.93 738.859L1758.8 758.189L1758.83 758.199L1758.87 758.209L1763.93 738.859ZM1716.47 730.773L1718.15 710.844L1704.19 709.665L1698.31 722.383L1716.47 730.773ZM1649.67 911.125L1668.89 916.677L1668.9 916.619L1668.92 916.561L1649.67 911.125ZM1861.31 528.977L1880.87 533.155L1889.91 490.828L1851.82 511.373L1861.31 528.977ZM1795.57 592.609L1779.47 580.745L1779.43 580.796L1779.4 580.846L1795.57 592.609ZM1731.59 699.836L1713.68 690.933L1701.97 714.492L1727.8 719.474L1731.59 699.836ZM1819.48 724.797L1812.05 743.366L1834.08 752.178L1839.04 728.975L1819.48 724.797ZM1632.8 1099.91V1079.91C1620.23 1079.91 1609.56 1079.35 1600.71 1078.3L1598.34 1098.16L1595.98 1118.02C1606.81 1119.31 1619.12 1119.91 1632.8 1119.91V1099.91ZM1598.34 1098.16L1600.71 1078.3C1593.19 1077.4 1586.23 1075.28 1579.71 1071.93L1570.57 1089.72L1561.43 1107.51C1572.26 1113.07 1583.81 1116.57 1595.98 1118.02L1598.34 1098.16ZM1570.57 1089.72L1579.29 1071.72C1565.66 1065.11 1556.47 1051.81 1556.47 1023.62H1536.47H1516.47C1516.47 1061.54 1530.01 1092.29 1561.85 1107.72L1570.57 1089.72ZM1536.47 1023.62H1556.47C1556.47 1009.61 1558.65 992.037 1563.38 970.637L1543.85 966.32L1524.32 962.003C1519.21 985.135 1516.47 1005.76 1516.47 1023.62H1536.47ZM1543.85 966.32L1563.34 970.832C1568.28 949.492 1575.29 926.252 1584.44 901.085L1565.65 894.25L1546.85 887.415C1537.25 913.811 1529.74 938.618 1524.37 961.808L1543.85 966.32ZM1565.65 894.25L1584.44 901.085C1604.66 845.491 1629.7 792.082 1659.57 740.846L1642.29 730.773L1625.01 720.701C1593.94 773.996 1567.89 829.571 1546.85 887.415L1565.65 894.25ZM1642.29 730.773L1641.11 710.808C1616.1 712.28 1594.62 716.139 1577.64 723.21L1585.34 741.672L1593.03 760.133C1604.18 755.486 1620.67 752.08 1643.46 750.739L1642.29 730.773ZM1585.34 741.672L1577.8 723.146C1559.75 730.488 1545.92 742.953 1539.17 761.057L1557.91 768.039L1576.66 775.021C1578.82 769.219 1583.26 764.106 1592.87 760.198L1585.34 741.672ZM1557.91 768.039V788.039C1550.59 788.039 1546.59 783.717 1545.89 782.901C1545.05 781.915 1545.16 781.657 1545.86 783.3L1564.24 775.422L1582.63 767.543C1581.22 764.265 1579.22 760.315 1576.26 756.869C1573.45 753.591 1567.35 748.039 1557.91 748.039V768.039ZM1564.24 775.422L1545.86 783.3C1546.94 785.831 1547.41 788.196 1547.41 790.539H1567.41H1587.41C1587.41 782.57 1585.76 774.857 1582.63 767.543L1564.24 775.422ZM1567.41 790.539H1547.41C1547.41 791.572 1547.21 791.926 1547.12 792.074C1547 792.297 1546.47 793.116 1544.71 794.289L1555.8 810.93L1566.9 827.571C1579.53 819.15 1587.41 806.428 1587.41 790.539H1567.41ZM1555.8 810.93L1544.71 794.289C1540.96 796.788 1535.45 798.664 1526.98 798.664V818.664V838.664C1541.47 838.664 1555.18 835.384 1566.9 827.571L1555.8 810.93ZM1526.98 818.664V798.664C1517.89 798.664 1512.26 796.28 1508.35 792.932L1495.34 808.117L1482.32 823.302C1494.82 834.016 1510.28 838.664 1526.98 838.664V818.664ZM1495.34 808.117L1508.18 792.787C1504.96 790.091 1502.33 785.819 1502.33 776.828H1482.33H1462.33C1462.33 795.025 1468.37 811.612 1482.49 823.448L1495.34 808.117ZM1482.33 776.828H1502.33C1502.33 769.208 1504.57 761.685 1509.81 753.904L1493.23 742.727L1476.64 731.549C1467.35 745.331 1462.33 760.542 1462.33 776.828H1482.33ZM1493.23 742.727L1509.92 753.738C1515.26 745.648 1523.18 738.126 1534.41 731.426L1524.16 714.25L1513.92 697.074C1498.43 706.311 1485.73 717.774 1476.53 731.715L1493.23 742.727ZM1524.16 714.25L1534.5 731.374C1546.14 724.345 1559.95 718.713 1576.12 714.668L1571.27 695.266L1566.42 675.863C1546.97 680.725 1529.37 687.749 1513.83 697.126L1524.16 714.25ZM1571.27 695.266L1576.3 714.623C1592.54 710.405 1610.18 708.234 1629.28 708.234V688.234V668.234C1607.14 668.234 1586.1 670.752 1566.25 675.908L1571.27 695.266ZM1629.28 688.234V708.234C1638.51 708.234 1650.38 708.883 1665.03 710.256L1666.9 690.344L1668.77 670.431C1653.42 668.992 1640.21 668.234 1629.28 668.234V688.234ZM1666.9 690.344L1683.78 701.061C1723.47 638.541 1762.65 590.326 1801.18 555.83L1787.84 540.93L1774.49 526.029C1732.4 563.721 1690.96 615.116 1650.01 679.626L1666.9 690.344ZM1787.84 540.93L1801.17 555.833C1846.46 515.303 1884.97 498 1917.21 498V478V458C1870.7 458 1822.96 482.65 1774.5 526.027L1787.84 540.93ZM1917.21 478V498C1938.96 498 1954.74 501.192 1965.69 506.312L1974.16 488.195L1982.64 470.079C1964.52 461.605 1942.33 458 1917.21 458V478ZM1974.16 488.195L1954.6 484.029L1841.75 1013.83L1861.31 1018L1880.87 1022.17L1993.73 492.362L1974.16 488.195ZM1861.31 1018V998H1757.6V1018V1038H1861.31V1018ZM1757.6 1018L1777.17 1022.13L1832.36 760.924L1812.8 756.789L1793.23 752.654L1738.03 1013.87L1757.6 1018ZM1812.8 756.789L1821.15 738.616C1802.96 730.258 1785.56 723.844 1768.99 719.51L1763.93 738.859L1758.87 758.209C1772.77 761.844 1787.95 767.382 1804.45 774.963L1812.8 756.789ZM1763.93 738.859L1769.06 719.53C1752.85 715.223 1735.87 712.342 1718.15 710.844L1716.47 730.773L1714.78 750.702C1730.35 752.018 1745.01 754.527 1758.8 758.189L1763.93 738.859ZM1716.47 730.773L1698.31 722.383C1670.69 782.151 1648.06 843.255 1630.42 905.689L1649.67 911.125L1668.92 916.561C1685.97 856.183 1707.87 797.052 1734.62 739.164L1716.47 730.773ZM1649.67 911.125L1630.46 905.573C1612.44 967.932 1602.95 1019.59 1602.95 1059.84H1622.95H1642.95C1642.95 1025.08 1651.28 977.599 1668.89 916.677L1649.67 911.125ZM1622.95 1059.84H1602.95C1602.95 1079.79 1606.31 1098.82 1617.18 1112.41L1632.8 1099.91L1648.41 1087.42C1646.16 1084.6 1642.95 1076.91 1642.95 1059.84H1622.95ZM1861.31 528.977L1851.82 511.373C1827.22 524.64 1803.21 548.524 1779.47 580.745L1795.57 592.609L1811.67 604.473C1833.87 574.351 1853.69 555.813 1870.81 546.58L1861.31 528.977ZM1795.57 592.609L1779.4 580.846C1756.13 612.833 1734.24 649.562 1713.68 690.933L1731.59 699.836L1749.5 708.739C1769.24 669.016 1790.01 634.261 1811.75 604.373L1795.57 592.609ZM1731.59 699.836L1727.8 719.474C1759.61 725.609 1787.65 733.608 1812.05 743.366L1819.48 724.797L1826.9 706.227C1799.74 695.361 1769.19 686.719 1735.37 680.198L1731.59 699.836ZM1819.48 724.797L1839.04 728.975L1880.87 533.155L1861.31 528.977L1841.75 524.798L1799.92 720.618L1819.48 724.797Z" fill="#5287EA" mask="url(#path-3-outside-2_247_16)"/>
<path d="M286.89 589.76L287.45 591.487H330.977L297.233 616.004L295.764 617.071L296.325 618.799L309.214 658.468L275.47 633.951L274 632.884L272.53 633.951L238.785 658.468L251.675 618.799L252.236 617.071L250.767 616.004L217.023 591.487H260.55L261.11 589.76L274 550.09L286.89 589.76Z" fill="white" stroke="#5287EA" stroke-width="5"/>
</g>
<defs>
<filter id="filter0_d_247_16" x="0.230469" y="362" width="2096.8" height="861.914" filterUnits="userSpaceOnUse" color-interpolation-filters="sRGB">
<feFlood flood-opacity="0" result="BackgroundImageFix"/>
<feColorMatrix in="SourceAlpha" type="matrix" values="0 0 0 0 0 0 0 0 0 0 0 0 0 0 0 0 0 0 127 0" result="hardAlpha"/>
<feOffset dy="4"/>
<feGaussianBlur stdDeviation="50"/>
<feComposite in2="hardAlpha" operator="out"/>
<feColorMatrix type="matrix" values="0 0 0 0 1 0 0 0 0 1 0 0 0 0 1 0 0 0 0.25 0"/>
<feBlend mode="normal" in2="BackgroundImageFix" result="effect1_dropShadow_247_16"/>
<feBlend mode="normal" in="SourceGraphic" in2="effect1_dropShadow_247_16" result="shape"/>
</filter>
</defs>
</svg>
